<svg width="83" height="16" viewBox="0 0 83 16" fill="none" xmlns="http://www.w3.org/2000/svg">
<g clip-path="url(#clip0_2_217)">
<path d="M21.8934 12.8721H23.1539V13.3003H22.7387V15.1535H22.2987V13.2936H21.8934V12.8721Z" fill="white"/>
<path d="M23.4818 12.872H23.9414C24.1231 12.8614 24.3052 12.8844 24.4786 12.9398C24.5868 12.9847 24.6776 13.0636 24.7372 13.1647C24.804 13.277 24.8377 13.4059 24.8344 13.5366C24.839 13.6704 24.8016 13.8023 24.7273 13.9136C24.6435 14.0221 24.5285 14.1023 24.3978 14.1434L24.9382 15.1601H24.4637L23.9497 14.1913H23.9101V15.1535H23.4768L23.4818 12.872ZM23.9151 13.7664H24.0518C24.15 13.7751 24.2487 13.7562 24.3369 13.7119C24.3638 13.6904 24.3849 13.6625 24.3985 13.6308C24.412 13.599 24.4174 13.5644 24.4143 13.53C24.4149 13.4837 24.4017 13.4382 24.3764 13.3994C24.3503 13.3633 24.3142 13.3357 24.2726 13.3201C24.1946 13.3001 24.114 13.2923 24.0337 13.2969H23.9151V13.7664Z" fill="white"/>
<path d="M25.9894 12.8721H26.4293L27.3075 15.1535H26.8561L26.6781 14.6824H25.7472L25.561 15.1535H25.1096L25.9894 12.8721ZM26.2118 13.4788L25.907 14.2641H26.5166L26.2118 13.4788Z" fill="white"/>
<path d="M27.6485 12.8721H28.7804V13.297H28.0802V13.7119H28.7804V14.1302H28.0802V15.1535H27.6485V12.8721Z" fill="white"/>
<path d="M29.1726 12.8721H30.3045V13.297H29.6042V13.7119H30.3045V14.1302H29.6042V15.1535H29.1726V12.8721Z" fill="white"/>
<path d="M30.6604 12.8721H31.092V15.1535H30.6604V12.8721Z" fill="white"/>
<path d="M33.6771 13.2739L33.3723 13.5648C33.2862 13.4632 33.1795 13.3812 33.0594 13.3241C32.9392 13.2671 32.8083 13.2365 32.6754 13.2342C32.5732 13.2318 32.4716 13.2505 32.3769 13.2891C32.2822 13.3278 32.1965 13.3856 32.1251 13.459C32.0519 13.5309 31.9944 13.6172 31.9561 13.7126C31.9178 13.8079 31.8996 13.9101 31.9027 14.0128C31.9003 14.1547 31.9343 14.2947 32.0015 14.4195C32.0668 14.5369 32.1639 14.6332 32.2816 14.6973C32.4052 14.7656 32.5442 14.8009 32.6853 14.7998C32.8038 14.8007 32.9211 14.7765 33.0296 14.7287C33.1584 14.6633 33.2748 14.576 33.374 14.4708L33.6689 14.7783C33.5319 14.9212 33.3699 15.0378 33.1911 15.1222C33.028 15.1889 32.8531 15.2215 32.677 15.2181C32.5173 15.2252 32.3577 15.1995 32.2081 15.1427C32.0585 15.0858 31.9221 14.999 31.8071 14.8874C31.6944 14.774 31.6061 14.6386 31.5477 14.4896C31.4894 14.3406 31.4621 14.1811 31.4677 14.0211C31.4643 13.8076 31.5178 13.597 31.6226 13.4111C31.7283 13.2312 31.881 13.0837 32.0641 12.9845C32.2526 12.8758 32.4662 12.8188 32.6836 12.8192C32.8713 12.8192 33.0567 12.8598 33.2273 12.9382C33.3998 13.016 33.5533 13.1305 33.6771 13.2739Z" fill="white"/>
<path d="M36.2062 14.2608L36.4649 14.5584L36.3479 14.6658L36.2309 14.7716L36.5984 15.1535H36.0711L35.9212 14.9981C35.7212 15.1279 35.4902 15.2015 35.2523 15.2114C35.1751 15.2149 35.0979 15.2032 35.0253 15.1768C34.9526 15.1504 34.8859 15.1099 34.8288 15.0576C34.7749 15.0073 34.7324 14.9461 34.7039 14.8779C34.6755 14.8098 34.6619 14.7364 34.6641 14.6625C34.664 14.5417 34.6958 14.4231 34.7563 14.3186C34.839 14.1891 34.9458 14.0768 35.071 13.988C34.9441 13.8404 34.8669 13.6565 34.8502 13.4623C34.8567 13.3376 34.9089 13.2198 34.9969 13.1316C35.0488 13.0754 35.1126 13.0314 35.1835 13.0028C35.2545 12.9742 35.3308 12.9617 35.4071 12.9663C35.4837 12.9616 35.5604 12.974 35.6316 13.0026C35.7028 13.0312 35.7668 13.0752 35.819 13.1316C35.9065 13.2199 35.9576 13.3379 35.9624 13.4623C35.9626 13.5504 35.9399 13.637 35.8965 13.7136C35.8101 13.8439 35.7083 13.9633 35.5933 14.069C35.7779 14.2872 35.8981 14.4244 35.9525 14.4774C35.9871 14.4476 36.0711 14.3765 36.2062 14.2608ZM35.6394 14.7022C35.5231 14.5772 35.4131 14.4465 35.3099 14.3104C35.1567 14.4377 35.0809 14.5501 35.0809 14.641C35.082 14.6647 35.0881 14.6879 35.0989 14.709C35.1097 14.7302 35.1249 14.7487 35.1435 14.7634C35.1892 14.8027 35.2482 14.8228 35.3083 14.8196C35.4265 14.8079 35.5401 14.7676 35.6394 14.7022ZM35.3808 13.7565C35.4961 13.659 35.5455 13.5714 35.5455 13.4953C35.5462 13.4774 35.5431 13.4596 35.5362 13.443C35.5294 13.4265 35.5191 13.4116 35.506 13.3995C35.4923 13.3867 35.4762 13.3767 35.4587 13.3702C35.4412 13.3637 35.4225 13.3607 35.4038 13.3614C35.3852 13.3613 35.3667 13.365 35.3495 13.372C35.3322 13.3791 35.3166 13.3896 35.3033 13.4028C35.2772 13.4291 35.2624 13.4648 35.2621 13.502C35.2733 13.5974 35.3149 13.6867 35.3808 13.7565Z" fill="white"/>
<path d="M38.8539 13.1828L38.5244 13.4672C38.4896 13.403 38.4401 13.3481 38.3799 13.307C38.3197 13.2659 38.2507 13.2398 38.1784 13.2308C38.1282 13.2286 38.0789 13.2451 38.04 13.2771C38.0237 13.2888 38.0103 13.3042 38.0009 13.3219C37.9914 13.3397 37.9862 13.3594 37.9856 13.3796C37.9859 13.4192 37.9992 13.4575 38.0235 13.4887C38.1225 13.5942 38.2287 13.6926 38.3415 13.783C38.5074 13.9218 38.6079 14.0095 38.643 14.0458C38.7204 14.1193 38.784 14.2061 38.8309 14.3021C38.8676 14.3859 38.8862 14.4767 38.8852 14.5683C38.8878 14.6552 38.8719 14.7417 38.8387 14.8221C38.8055 14.9025 38.7556 14.9749 38.6925 15.0345C38.5545 15.16 38.3727 15.2259 38.1867 15.218C38.0361 15.2218 37.8878 15.1797 37.7616 15.0973C37.6274 15.0015 37.5206 14.8721 37.4518 14.722L37.8159 14.5005C37.9263 14.7022 38.0532 14.8047 38.1949 14.8047C38.2635 14.8068 38.3304 14.7832 38.3827 14.7385C38.4061 14.7209 38.4251 14.6982 38.4385 14.6722C38.452 14.6461 38.4593 14.6174 38.4601 14.5881C38.4584 14.5314 38.4381 14.4768 38.4025 14.4327C38.3312 14.3454 38.2511 14.2656 38.1636 14.1946C37.983 14.0597 37.8213 13.9013 37.6825 13.7234C37.6143 13.6265 37.5764 13.5114 37.5737 13.3928C37.573 13.3157 37.5887 13.2393 37.62 13.1688C37.6513 13.0984 37.6973 13.0355 37.755 12.9845C37.8757 12.8726 38.0356 12.8132 38.1998 12.8191C38.3145 12.8184 38.4275 12.8456 38.5293 12.8985C38.6539 12.9727 38.7639 13.069 38.8539 13.1828Z" fill="white"/>
<path d="M39.083 12.8721H40.3434V13.3003H39.9282V15.1535H39.4817V13.2936H39.0764L39.083 12.8721Z" fill="white"/>
<path d="M41.3369 12.8721H41.7784L42.655 15.1535H42.2035L42.0256 14.6824H41.0947L40.9085 15.1535H40.4587L41.3369 12.8721ZM41.561 13.4788L41.2545 14.2641H41.8641L41.561 13.4788Z" fill="white"/>
<path d="M42.7654 12.8721H44.0258V13.3003H43.6106V15.1535H43.1707V13.2936H42.7654V12.8721Z" fill="white"/>
<path d="M45.5218 13.1829L45.2005 13.4673C45.1656 13.4032 45.116 13.3484 45.0559 13.3073C44.9957 13.2662 44.9267 13.24 44.8545 13.2309C44.8038 13.2286 44.7539 13.2451 44.7145 13.2772C44.6982 13.2889 44.6848 13.3042 44.6753 13.322C44.6659 13.3398 44.6607 13.3595 44.6601 13.3797C44.6597 13.4196 44.6738 13.4584 44.6996 13.4888C44.7981 13.5947 44.9044 13.6931 45.0176 13.7831C45.1835 13.9219 45.284 14.0095 45.3191 14.0459C45.396 14.1198 45.4595 14.2065 45.507 14.3022C45.5437 14.386 45.5623 14.4768 45.5614 14.5683C45.564 14.6555 45.5481 14.7422 45.5145 14.8226C45.481 14.903 45.4306 14.9753 45.3669 15.0346C45.2292 15.1605 45.0473 15.2265 44.8611 15.2181C44.7111 15.2217 44.5634 15.1796 44.4377 15.0974C44.3031 15.002 44.1962 14.8725 44.1279 14.7221L44.492 14.5006C44.6024 14.7022 44.7277 14.8048 44.871 14.8048C44.9395 14.8062 45.0062 14.7827 45.0588 14.7386C45.082 14.721 45.1009 14.6983 45.1141 14.6722C45.1272 14.6461 45.1342 14.6174 45.1346 14.5882C45.1336 14.5316 45.1139 14.4769 45.0786 14.4328C45.0026 14.3447 44.9176 14.2649 44.8249 14.1947C44.6443 14.0598 44.4825 13.9014 44.3438 13.7235C44.2756 13.6266 44.2377 13.5115 44.235 13.3929C44.2343 13.3159 44.2499 13.2397 44.2809 13.1692C44.3118 13.0988 44.3574 13.0359 44.4146 12.9845C44.5361 12.8729 44.6965 12.8136 44.8611 12.8192C44.9757 12.8187 45.0888 12.8459 45.1906 12.8986C45.3175 12.9721 45.4298 13.0685 45.5218 13.1829Z" fill="white"/>
<path d="M18.814 3.13118C18.4482 2.26715 17.9208 1.48148 17.2603 0.81665L13.1051 4.9861C12.9233 4.83374 12.7043 4.73273 12.4707 4.69348C12.2706 4.65046 12.0629 4.65931 11.8672 4.71919C11.6714 4.77906 11.4942 4.88799 11.352 5.0357L8.39784 7.87926L1.31312 6.2095L0.187801 7.36676L5.59526 10.5906L2.76137 13.3234L0.958881 12.9117L-0.00167847 13.7102L3.81419 15.9983L7.99253 11.976C8.39894 12.2556 8.83156 12.4948 9.28425 12.6902C10.1796 13.0746 11.1443 13.2699 12.1181 13.2638C13.092 13.2699 14.0567 13.0746 14.952 12.6902C15.8129 12.3227 16.5958 11.7936 17.2587 11.1312C17.919 10.4662 18.4464 9.68053 18.8124 8.81664C19.1963 7.91846 19.3909 6.95034 19.3841 5.97308C19.3913 4.99647 19.1973 4.02892 18.814 3.13118ZM14.9323 5.19937C14.9986 5.45242 15.0319 5.71307 15.0311 5.97473C15.0365 6.35836 14.9636 6.73904 14.8168 7.09331C14.67 7.44758 14.4525 7.76794 14.1777 8.03467C13.9118 8.31045 13.5926 8.52871 13.2395 8.67599C12.8864 8.82327 12.5071 8.89646 12.1247 8.89104C11.8518 8.89191 11.5801 8.85463 11.3174 8.78028L13.2138 6.96172C13.4147 6.7655 13.548 6.51009 13.5944 6.23264C13.6326 6.02132 13.6127 5.80354 13.5367 5.60276L14.6324 4.50336C14.7638 4.72039 14.8647 4.95461 14.9323 5.19937ZM16.2503 10.1128C15.7152 10.6621 15.0737 11.0958 14.3654 11.3872C13.657 11.6786 12.8968 11.8216 12.1313 11.8073C11.049 11.8245 9.98436 11.5302 9.06347 10.9592L10.1657 9.89786C10.776 10.2024 11.4497 10.3571 12.1313 10.3492C12.7056 10.3596 13.2759 10.2517 13.807 10.0322C14.3381 9.81268 14.8186 9.48618 15.2189 9.07289C15.6308 8.6712 15.9562 8.18901 16.175 7.65612C16.3938 7.12323 16.5013 6.55097 16.4909 5.97473C16.4932 5.51349 16.4226 5.05481 16.2817 4.61578C16.1482 4.19515 15.9491 3.79842 15.6918 3.44033L16.7282 2.40044C17.115 2.89888 17.4183 3.45728 17.6261 4.05368C17.8413 4.67152 17.9489 5.32192 17.9441 5.97639C17.9589 6.74545 17.8162 7.50937 17.5248 8.22087C17.2335 8.93236 16.7997 9.57629 16.2503 10.1128Z" fill="white"/>
<path d="M26.9599 2.82874V5.15318C25.2101 5.15318 24.1408 6.56835 24.1408 7.63303V11.3512H21.877V2.97918H24.1457V4.23067C24.5181 3.18748 25.2793 2.82874 26.9599 2.82874Z" fill="white"/>
<path d="M35.7927 2.94275V11.3511H33.5255V10.4071C33.023 11.0585 32.1811 11.318 31.4183 11.318C30.3124 11.3233 29.2496 10.8881 28.4631 10.108C27.6767 9.32784 27.2308 8.26648 27.2234 7.15684C27.2182 6.04704 27.6518 4.98045 28.4293 4.19106C29.2067 3.40167 30.2645 2.95392 31.3705 2.94605C32.1646 2.94605 33.0181 3.23868 33.5255 3.87352V2.94605L35.7927 2.94275ZM33.4448 7.12046C33.4469 6.84732 33.3933 6.57663 33.2874 6.32503C33.1814 6.07342 33.0253 5.84621 32.8286 5.65736C32.641 5.46606 32.4162 5.31543 32.1682 5.21477C31.9203 5.1141 31.6544 5.06555 31.3869 5.07212C31.1163 5.0706 30.8481 5.12301 30.5977 5.22631C30.3474 5.32961 30.1201 5.48174 29.9288 5.67389C29.7374 5.86585 29.5858 6.09401 29.4829 6.34516C29.3799 6.5963 29.3277 6.86545 29.3291 7.137C29.3307 7.40958 29.386 7.67915 29.4918 7.93023C29.5975 8.18131 29.7516 8.40896 29.9453 8.60011C30.1371 8.79286 30.3653 8.94534 30.6165 9.04866C30.8677 9.15198 31.1369 9.20407 31.4084 9.20189C31.9512 9.19367 32.469 8.97159 32.85 8.58358C33.0406 8.39121 33.1912 8.16286 33.2933 7.91174C33.3954 7.66061 33.4469 7.39167 33.4448 7.12046Z" fill="white"/>
<path d="M43.2942 11.3511V10.3906C42.5518 11.0055 41.6207 11.3447 40.6581 11.3511C39.5519 11.3559 38.4889 10.9204 37.7023 10.1401C36.9156 9.35972 36.4694 8.29819 36.4616 7.18826C36.4563 6.07861 36.89 5.01219 37.6675 4.22306C38.445 3.43393 39.5028 2.98655 40.6086 2.97912C41.5842 2.97569 42.5302 3.31492 43.2827 3.93799V0.0032959H45.5449L45.5614 11.3511H43.2942ZM42.6945 7.15684C42.684 6.60783 42.4634 6.08392 42.0783 5.69374C41.686 5.31669 41.1634 5.1069 40.6202 5.10848C40.3495 5.10706 40.0813 5.15951 39.831 5.26281C39.5807 5.3661 39.3533 5.51819 39.162 5.71026C38.7822 6.10123 38.5724 6.62741 38.5788 7.17337C38.5775 7.4449 38.6299 7.71399 38.7328 7.96511C38.8358 8.21623 38.9872 8.44441 39.1785 8.63649C39.3702 8.82797 39.5977 8.97955 39.8479 9.08254C40.0981 9.18553 40.3662 9.2379 40.6366 9.23662C41.1837 9.22704 41.7059 9.00616 42.0948 8.61995C42.2866 8.42759 42.4384 8.1989 42.5413 7.94715C42.6443 7.69541 42.6964 7.42564 42.6945 7.15353V7.15684Z" fill="white"/>
<path d="M54.8044 2.94275V11.3511H52.5274V10.4071C52.0332 11.0585 51.183 11.318 50.4218 11.318C49.3158 11.3233 48.2528 10.8882 47.4661 10.1081C46.6794 9.32799 46.2332 8.26663 46.2253 7.15684C46.2201 6.04704 46.6537 4.98045 47.4312 4.19106C48.2086 3.40167 49.2663 2.95392 50.3724 2.94605C51.1665 2.94605 52.02 3.23868 52.5274 3.87352V2.94605L54.8044 2.94275ZM52.4549 7.12046C52.457 6.84732 52.4035 6.57663 52.2975 6.32503C52.1915 6.07342 52.0354 5.84621 51.8387 5.65736C51.6505 5.46427 51.4246 5.31231 51.1751 5.21103C50.9256 5.10975 50.6579 5.06133 50.3888 5.06881C50.1182 5.06738 49.85 5.11983 49.5997 5.22313C49.3494 5.32643 49.122 5.47851 48.9307 5.67059C48.7393 5.86255 48.5877 6.09071 48.4848 6.34186C48.3818 6.593 48.3296 6.86214 48.331 7.13369C48.3326 7.40627 48.3879 7.67584 48.4936 7.92692C48.5994 8.178 48.7535 8.40566 48.9472 8.59681C49.1382 8.78948 49.3655 8.94217 49.6158 9.04604C49.8661 9.14991 50.1345 9.20289 50.4053 9.20189C50.9482 9.19403 51.4661 8.97189 51.847 8.58358C52.0384 8.39162 52.19 8.16346 52.2929 7.91231C52.3958 7.66117 52.4481 7.39202 52.4467 7.12046H52.4549Z" fill="white"/>
<path d="M60.8545 2.82874V5.15318C59.1047 5.15318 58.0354 6.56835 58.0354 7.63303V11.3512H55.7667V2.97918H58.0354V4.23067C58.4078 3.18748 59.169 2.82874 60.8545 2.82874Z" fill="white"/>
<path d="M69.2145 7.13699C69.219 7.68597 69.1157 8.23048 68.9105 8.7394C68.7053 9.24833 68.4022 9.7117 68.0184 10.103C67.6347 10.4944 67.1779 10.806 66.6741 11.0202C66.1703 11.2343 65.6294 11.3468 65.0823 11.3511C64.5338 11.3563 63.9898 11.2526 63.4815 11.0458C62.9732 10.839 62.5107 10.5333 62.1208 10.1463C61.7308 9.75933 61.4211 9.2987 61.2094 8.791C60.9977 8.2833 60.8883 7.73858 60.8874 7.18824C60.8835 6.63842 60.9878 6.09323 61.1942 5.58391C61.4007 5.07459 61.7052 4.61115 62.0905 4.22014C62.4757 3.82914 62.934 3.51825 63.4392 3.30529C63.9444 3.09232 64.4865 2.98148 65.0345 2.9791C65.5814 2.9754 66.1236 3.08015 66.6301 3.28734C67.1365 3.49454 67.5972 3.80009 67.9856 4.18644C68.374 4.5728 68.6825 5.03235 68.8934 5.5387C69.1043 6.04504 69.2134 6.5882 69.2145 7.13699ZM67.1072 7.15352C67.106 6.88101 67.0511 6.61143 66.9456 6.36032C66.8402 6.1092 66.6862 5.88153 66.4926 5.69041C66.1002 5.31365 65.5776 5.10392 65.0345 5.10516C64.7663 5.10371 64.5005 5.15623 64.2529 5.25959C64.0053 5.36295 63.7809 5.51506 63.5928 5.70694C63.2083 6.09612 62.9928 6.62205 62.9931 7.17005C62.9969 7.72015 63.2179 8.2463 63.6076 8.63316C63.7993 8.82464 64.0268 8.97624 64.277 9.07922C64.5273 9.18221 64.7953 9.23457 65.0658 9.23329C65.6091 9.22683 66.1279 9.00519 66.5091 8.61663C66.7003 8.42458 66.8516 8.19637 66.9543 7.94522C67.0569 7.69407 67.1089 7.42497 67.1072 7.15352Z" fill="white"/>
<path d="M80.1661 2.86169L75.6286 11.351L75.6121 11.3345L74.1556 8.60337L72.6728 11.351V11.3345L68.1501 2.86169H70.4815L72.686 7.10389L73.0155 6.4707L71.0878 2.86169H73.4208L75.6401 7.10389L77.8446 2.86169H80.1661Z" fill="white"/>
<path d="M83 11.3511H80.7329V0.0528564H83V11.3511Z" fill="white"/>
</g>
<defs>
<clipPath id="clip0_2_217">
<rect width="83" height="16" fill="white"/>
</clipPath>
</defs>
</svg>
